<svg id="Шар_1" data-name="Шар 1" xmlns="http://www.w3.org/2000/svg" width="33" height="30" viewBox="0 0 33 30"><defs><style>.cls-1{fill:#cad3db;}</style></defs><path class="cls-1" d="M33,14.65a2,2,0,0,1-.59,1.5,2,2,0,0,1-1.49.57H28.66v9.8h0a3.15,3.15,0,0,1-.91,2.29,3.2,3.2,0,0,1-2.28.92H20.82a1.28,1.28,0,0,1-1.42-1.45V22.87a2.88,2.88,0,0,0-2-2.93,2.85,2.85,0,0,0-3.79,2.51c-.07,1.87-.06,3.82,0,5.74a1.39,1.39,0,0,1-1.54,1.55c-1.53,0-3.06,0-4.58,0h0A3.14,3.14,0,0,1,4.33,26.6V16.72H2.18A2,2,0,0,1,0,14.5H0a11,11,0,0,1,.12-1.81A3,3,0,0,1,1.3,10.86L14.14.85a3.69,3.69,0,0,1,4.71,0l12.79,10A3.35,3.35,0,0,1,33,13.61v1Z"/></svg>