<svg width="30" height="39" viewBox="0 0 30 39" fill="none" xmlns="http://www.w3.org/2000/svg">
<path d="M15.4912 6.32833C15.4912 6.45742 15.5429 6.58129 15.635 6.67256C15.7271 6.76384 15.852 6.81512 15.9822 6.81512H18.9283C19.0585 6.81512 19.1835 6.76384 19.2755 6.67256C19.3676 6.58129 19.4193 6.45742 19.4193 6.32833V2.92077C19.6175 2.91969 19.7957 2.80082 19.8711 2.61892C19.9481 2.43767 19.9073 2.2284 19.7679 2.08844L17.8038 0.141266C17.7113 0.0499934 17.5857 -0.000644694 17.4553 6.21861e-06H12.5451C12.4147 -0.000645751 12.2891 0.0499901 12.1966 0.141266L10.2325 2.08844C10.0931 2.22839 10.0523 2.43767 10.1292 2.61892C10.2046 2.80081 10.3829 2.91968 10.581 2.92077V6.32833C10.581 6.45742 10.6327 6.58129 10.7248 6.67256C10.8169 6.76384 10.9418 6.81512 11.072 6.81512H14.0181C14.1484 6.81512 14.2733 6.76384 14.3654 6.67256C14.4574 6.58129 14.5092 6.45742 14.5092 6.32833V5.35474H15.4912L15.4912 6.32833ZM14.0181 4.38116C13.747 4.38116 13.5271 4.59913 13.5271 4.86795V5.84154H11.563V2.92077H12.0541V3.40757H13.0361V2.92077H13.5271V3.40757H14.5092V2.92077H15.0002V3.40757H15.9822V2.92077H16.4732V3.40757H17.4553V2.92077H18.4373V5.84154H16.4732V4.86795C16.4732 4.73886 16.4215 4.61499 16.3294 4.52372C16.2374 4.43244 16.1124 4.38116 15.9822 4.38116H14.0181Z" fill="#CAD3DB"/>
<path d="M0 31.3765C0.00133929 31.8289 0.149328 32.2682 0.420751 32.6254C0.692174 32.9827 1.07165 33.2378 1.49999 33.3508V36.4916C1.49999 37.044 1.82989 37.622 5.7499 38.0876C8.82281 38.4089 11.9109 38.5591 15 38.5377C18.089 38.5591 21.177 38.4089 24.2501 38.0876C28.1701 37.6222 28.5 37.0646 28.5 36.4916V33.3508C28.9284 33.2378 29.3078 32.9827 29.5792 32.6254C29.8507 32.2682 29.9987 31.8289 30 31.3765C30 30.7933 29.425 27.2844 28 27.2844C26.575 27.2844 26.0001 30.7933 26.0001 31.3765C26.0014 31.8289 26.1494 32.2682 26.4208 32.6254C26.6923 32.9827 27.0717 33.2378 27.5001 33.3508V35.5248C26.5045 35.2179 25.4809 35.0155 24.4452 34.9212C21.7466 34.6212 19.0348 34.4623 16.3202 34.4456C16.8501 33.0237 17.4852 31.2181 17.8202 29.9904C20.5414 29.2914 22.919 27.5991 24.5052 25.2316C26.0916 22.8642 26.7771 19.9852 26.4331 17.1363C26.0889 14.2878 24.7387 11.6661 22.6365 9.76527C20.5346 7.86421 17.8257 6.81494 15.0201 6.81494C12.2143 6.81494 9.50546 7.86421 7.40367 9.76527C5.30189 11.6663 3.95151 14.288 3.60729 17.1363C3.26311 19.9849 3.94881 22.864 5.53514 25.2316C7.12151 27.5991 9.49889 29.2914 12.2201 29.9904C12.5351 31.2181 13.1701 33.0237 13.7201 34.4456C11.0057 34.4591 8.29388 34.6143 5.59514 34.911C4.54539 35.006 3.50832 35.2117 2.50012 35.5248V33.3508C2.92846 33.2378 3.30793 32.9827 3.57935 32.6254C3.85077 32.2682 3.99876 31.8289 4.0001 31.3765C4.0001 30.7933 3.42514 27.2844 2.00014 27.2844C0.575142 27.2844 0.000182666 30.7933 0.000182666 31.3765L0 31.3765ZM7.99984 18.5888C7.99984 16.6896 8.73731 14.868 10.05 13.5251C11.3627 12.1821 13.1433 11.4276 14.9997 11.4276C16.8561 11.4276 18.6367 12.1821 19.9494 13.5251C21.2621 14.868 21.9996 16.6896 21.9996 18.5888C21.9996 20.488 21.2621 22.3095 19.9494 23.6525C18.6367 24.9954 16.8561 25.7499 14.9997 25.7499C13.1433 25.7499 11.3627 24.9954 10.05 23.6525C8.73731 22.3095 7.99984 20.488 7.99984 18.5888V18.5888ZM14.0649 35.4686C14.3249 36.1489 14.5149 36.6145 14.5349 36.6756C14.6104 36.8709 14.7948 36.9992 14.9999 36.9992C15.205 36.9992 15.3894 36.8709 15.4648 36.6756C15.4648 36.6142 15.6749 36.1641 15.9349 35.4686C21.9348 35.5095 25.9896 36.0313 27.2147 36.4916C25.9248 36.9673 21.5398 37.5146 15.0001 37.5146C8.46032 37.5146 4.07515 36.9673 2.78546 36.4916C4.00041 36.0415 8.06033 35.5197 14.0652 35.4686H14.0649Z" fill="#CAD3DB"/>
</svg>
